<svg width="256" height="256" viewBox="0 0 256 256" fill="none" xmlns="http://www.w3.org/2000/svg">
  <path d="M31 65L80 24H176L225 65L128 227L31 65Z" fill="#D71920" stroke="#111111" stroke-width="7"/>
  <path d="M55 66L88 35H168L201 66L128 195L55 66Z" fill="#F5D400" stroke="#111111" stroke-width="5"/>
  <path d="M80 52H173V72H115C106 72 100 75 100 82C100 88 105 91 120 96L143 103C162 109 171 120 171 137C171 161 151 176 117 176H75V156H118C132 156 140 150 140 141C140 133 135 129 121 124L99 117C80 111 69 101 69 82C69 63 84 52 110 52H80Z" fill="#D71920"/>
  <path d="M79 60H164V68H114C103 68 94 72 94 82C94 90 100 95 115 100L137 106C158 112 165 122 165 137C165 157 149 168 118 168H80V160H118C138 160 149 153 149 140C149 129 141 123 126 118L104 112C82 106 75 96 75 82C75 67 87 60 110 60H79Z" fill="#111111"/>
</svg>
